<?xml version="1.0" encoding="UTF-8"?>
<svg width="1440px" height="320px" viewBox="0 0 1440 320" version="1.1" xmlns="http://www.w3.org/2000/svg" xmlns:xlink="http://www.w3.org/1999/xlink">
    <!-- Generator: Sketch 49 (51002) - http://www.bohemiancoding.com/sketch -->
    <title>Haku</title>
    <desc>Created with Sketch.</desc>
    <defs></defs>
    <g id="Page-1" stroke="none" stroke-width="1" fill="none" fill-rule="evenodd">
        <g id="Desktop-HD" transform="translate(0.000000, -343.000000)" stroke="#FFFFFF">
            <g id="Haku" transform="translate(0.000000, 344.000000)">
                <g id="Group">
                    <path d="M204,318.244898 C199.333333,313.578231 194.666667,306.244898 190,296.244898 C190,296.244898 196,292.244898 199,292.244898 C199,292.244898 192,270 177,255 C177,255 174,249.081633 168,237.244898 L180,221.244898 C203.333333,242.578231 218.333333,250.578231 225,245.244898 C225,245.244898 237,236.244898 239,231.244898 C239,231.244898 261,205.244898 261,185.244898 C261,185.244898 262,142.244898 261,129.244898 C261,129.244898 259,125.244898 280,123.244898 C280,123.244898 287,126.244898 293,123.244898 C293,123.244898 304,117.244898 305,115.244898 C305,115.244898 308,110.244898 311,109.244898 C311,109.244898 317,106.244898 307,106.244898 C307,106.244898 299,109.244898 295,108.244898 C295,108.244898 292,107.244898 297,105.244898 C297,105.244898 302,103.244898 298,95.244898 C298,95.244898 284,85.244898 288,93.244898 C288,93.244898 295,96.244898 293,100.244898 C293,100.244898 292,103.244898 287,103.244898 C287,103.244898 279,104.244898 274,102.244898 C274,102.244898 269,100.244898 278,97.244898 C278,97.244898 285,95.244898 285,91.244898 C285,91.244898 285,87.244898 277,90.244898 C277,90.244898 261,94.244898 258,98.244898 C258,98.244898 254,104.244898 253,104.244898 C253,104.244898 248,107.244898 248,113.244898 C248,113.244898 240,163.244898 239,165.244898 C239,165.244898 236,143.244898 222,149.244898 C222,149.244898 212,137.244898 192,113.244898 L198,106.244898 C200,104.911565 203,104.911565 207,106.244898 C207,106.244898 211.333333,107.578231 220,110.244898 C223.333333,111.578231 227,108.911565 231,102.244898 C231,102.244898 233,99.5782313 237,94.244898 C235.666667,93.5782313 236,92.9115646 238,92.244898 C238,92.244898 237,82.244898 238,81.244898 C238,81.244898 240,76.244898 237,73.244898 C237,73.244898 231,66.244898 238,58.244898 C238,58.244898 238.333333,59.244898 239,61.244898 L251,59.244898 C251.666667,55.9115646 251.666667,51.5782313 251,46.244898 C251,46.244898 250.75,40.244898 248,37.244898 C248,37.244898 242,16.244898 230,12.244898 C230,12.244898 218,0.244897959 207,0.244897959 C207,0.244897959 181,-2.75510204 153,12.244898 C153,12.244898 119,36.244898 117,41.244898 C117,41.244898 130,57.244898 135,69.244898 C135,69.244898 142,81.244898 142,81.244898 C142,81.244898 143.333333,80.9115646 146,80.244898 L144,84.244898 L151,90.244898 L152,88.244898 C156.666667,92.244898 160,94.244898 162,94.244898 C162,94.244898 161,95.244898 159,97.244898 C152.333333,93.9115646 148.666667,93.5782313 148,96.244898 C148,96.244898 143.666667,96.244898 135,96.244898 C114.333333,105.578231 103.333333,111.244898 102,113.244898 C102,113.244898 55,142.244898 43,150.244898 C43,150.244898 21,159.244898 33,193.244898 C33,193.244898 12,212.244898 19,231.244898 C26,250.244898 23,268.244898 32,263.244898 C32,263.244898 13,278.244898 0,318.244898" id="Combined-Shape"></path>
                </g>
                <path d="M203.5,318 L1471,318" id="Path-13"></path>
            </g>
        </g>
    </g>
</svg>