<?xml version="1.0" encoding="UTF-8"?>
<svg width="950px" height="499px" viewBox="0 0 950 499" version="1.1" xmlns="http://www.w3.org/2000/svg" xmlns:xlink="http://www.w3.org/1999/xlink">
    <!-- Generator: Sketch 49 (51002) - http://www.bohemiancoding.com/sketch -->
    <title>Group 2</title>
    <desc>Created with Sketch.</desc>
    <defs></defs>
    <g id="Page-1" stroke="none" stroke-width="1" fill="none" fill-rule="evenodd">
        <g id="Desktop-HD" transform="translate(-254.000000, -194.000000)" stroke="#FFFFFF">
            <g id="Group-2" transform="translate(255.000000, 194.000000)">
                <g id="Group">
                    <path d="M0.5,103.5 L263.5,0.5" id="Path-4"></path>
                    <path d="M262.5,47.5 L387.5,0.5" id="Path-4" transform="translate(325.000000, 24.000000) scale(-1, 1) translate(-325.000000, -24.000000) "></path>
                    <polyline id="Path-2" points="0 104 0 496 618 496"></polyline>
                </g>
                <g id="Outline" transform="translate(549.000000, 130.000000)">
                    <path d="M103.97314,59.3849349 C124.639807,55.376947 138.306474,55.376947 144.97314,59.3849349 C144.97314,59.3849349 142.97314,16.2990654 155.97314,1.26911095 C155.97314,1.26911095 174.97314,-8.75085869 172.97314,67.4009106 C172.97314,67.4009106 185.97314,80.4268712 190.97314,92.4508347 C190.97314,92.4508347 223.97314,158.582634 226.97314,164.594616 C226.97314,164.594616 258.97314,222.71044 245.97314,266.798307 C245.97314,266.798307 242.97314,279.824267 235.97314,277.820273 C235.97314,277.820273 231.97314,277.820273 231.97314,286.838246 C231.97314,286.838246 230.97314,320.906143 220.97314,329.924115 C220.97314,329.924115 196.97314,360.986021 187.97314,368 C187.97314,368 168.306474,367.332002 128.97314,365.996006 L124.97314,358.982027 L121.97314,365.996006 L67.9731405,365.996006 C52.6398072,359.316026 41.9731405,350.632053 35.9731405,339.944085 C35.9731405,339.944085 15.9731405,303.872194 18.9731405,281.828261 C18.9731405,281.828261 18.9731405,277.820273 16.9731405,279.824267 C16.9731405,279.824267 8.9731405,279.824267 6.9731405,269.804297 C6.9731405,269.804297 -8.0268595,250.766355 5.9731405,201.668504 C5.9731405,201.668504 17.9731405,165.596613 29.9731405,151.568656 C29.9731405,151.568656 51.9731405,116.498762 53.9731405,107.480789 C53.9731405,107.480789 60.9731405,83.432862 75.9731405,71.4088985 C75.9731405,71.4088985 69.9731405,23.3130442 78.9731405,6.27909577 C78.9731405,6.27909577 84.9731405,-10.7548526 99.9731405,11.2890806 C99.9731405,11.2890806 103.50322,17.1896012 104.97314,31.3290199 C105.468883,36.097653 105.13555,45.4496246 103.97314,59.3849349 Z" id="Path-5"></path>
                    <path d="M323.718343,294.809415 C326.001122,289.3012 327.142512,284.711021 327.142512,281.038877 C327.142512,281.038877 329.995986,261.209302 335.13224,269.471625 C335.13224,269.471625 339.697799,276.081484 339.697799,283.792985 C339.697799,283.792985 348.828917,279.937234 355.677255,283.792985 C355.677255,283.792985 359.101424,272.776554 361.384204,269.471625 C361.384204,269.471625 365.379068,259.556838 369.944627,273.878197 C369.944627,273.878197 383.641303,324.553778 383.641303,330.612815 C383.641303,330.612815 391.060336,353.196497 377.36366,368.068678 C377.36366,368.068678 357.960034,368.068678 319.152784,368.068678 C311.543519,361.091606 309.260739,348.055496 312.304445,328.96035 C312.304445,328.96035 313.459402,321.648914 318.011394,308.029132 C318.900297,305.36949 320.802614,300.962918 323.718343,294.809415 Z" id="Path-8"></path>
                    <path d="M385.190332,336.0832 C390.136354,331.676628 392.609365,325.06677 392.609365,316.253625 C392.609365,316.253625 392.609365,263.374759 388.899849,246.850113 C388.899849,246.850113 386.331722,234.73204 383.478248,230.325467 C383.478248,230.325467 365.216012,236.384504 354.943504,233.079575 C354.943504,233.079575 367.498791,215.453286 382.907553,227.57136 C382.907553,227.57136 381.766163,213.25 399.457704,213.25 C399.457704,213.25 397.745619,227.57136 384.048942,229.774646" id="Path-9"></path>
                    <path d="M188,368 L328,368" id="Path-10"></path>
                </g>
            </g>
        </g>
    </g>
</svg>