<?xml version="1.0" encoding="UTF-8"?>
<svg width="175px" height="350px" viewBox="0 0 175 350" version="1.1" xmlns="http://www.w3.org/2000/svg" xmlns:xlink="http://www.w3.org/1999/xlink">
    <!-- Generator: Sketch 49 (51002) - http://www.bohemiancoding.com/sketch -->
    <title>Group</title>
    <desc>Created with Sketch.</desc>
    <defs></defs>
    <g id="Page-1" stroke="none" stroke-width="1" fill="none" fill-rule="evenodd">
        <g id="iPhone-8" transform="translate(-86.000000, -120.000000)" stroke="#FFFFFF">
            <g id="Group" transform="translate(87.000000, 120.000000)">
                <path d="M0.228571429,45.7851852 L108.5,0.5" id="Path-4"></path>
                <path d="M107.5,20.5 L154.5,0.5" id="Path-4" transform="translate(131.000000, 10.500000) scale(-1, 1) translate(-131.000000, -10.500000) "></path>
                <polyline id="Path-2" points="0 46 0 348 55 348"></polyline>
                <g id="Outline" transform="translate(28.000000, 214.700012)">
                    <path d="M37.568572,21.6238622 C45.0360502,20.1644318 49.9742212,20.1644318 52.3830851,21.6238622 C52.3830851,21.6238622 51.660426,5.93498578 56.3577106,0.462121923 C56.3577106,0.462121923 63.2229728,-3.18645398 62.5003136,24.5427229 C62.5003136,24.5427229 67.1975982,29.2858716 69.0042462,33.6641626 C69.0042462,33.6641626 80.9281226,57.7447636 82.0121114,59.9339092 C82.0121114,59.9339092 93.5746582,81.0956494 88.8773735,97.1493834 C88.8773735,97.1493834 87.7933848,101.892532 85.2640776,101.162817 C85.2640776,101.162817 83.8187593,101.162817 83.8187593,104.446535 C83.8187593,104.446535 83.4574297,116.851693 79.8441338,120.135412 C79.8441338,120.135412 71.1722237,131.445997 67.9202574,134 C67.9202574,134 60.8141089,133.756762 46.6018117,133.270285 L45.1564934,130.716282 L44.0725046,133.270285 L24.5607069,133.270285 C19.0203198,130.837901 15.1661376,127.675802 12.99816,123.783987 C12.99816,123.783987 5.77156828,110.649114 6.85555704,102.622247 C6.85555704,102.622247 6.85555704,101.162817 6.13289786,101.892532 C6.13289786,101.892532 3.24226116,101.892532 2.51960198,98.2439561 C2.51960198,98.2439561 -2.90034184,91.3116619 2.15827239,73.43364 C2.15827239,73.43364 6.49422745,60.2987667 10.8301825,55.1907605 C10.8301825,55.1907605 18.7794334,42.4207448 19.5020926,39.1370265 C19.5020926,39.1370265 22.0313997,30.3804443 27.4513436,26.0021532 C27.4513436,26.0021532 25.283366,8.48898891 28.5353323,2.28640987 C28.5353323,2.28640987 30.7033099,-3.91616916 36.1232537,4.11069783 C36.1232537,4.11069783 37.3987758,6.25925697 37.9299016,11.4078496 C38.1090281,13.1442541 37.9885849,16.5495916 37.568572,21.6238622 Z" id="Path-5"></path>
                    <path d="M117.60023,107.409871 C118.425912,105.410613 118.838753,103.744565 118.838753,102.411727 C118.838753,102.411727 119.870856,95.2143986 121.728641,98.2132853 C121.728641,98.2132853 123.380006,100.612395 123.380006,103.411356 C123.380006,103.411356 126.682735,102.011875 129.159782,103.411356 C129.159782,103.411356 130.398306,99.41284 131.223988,98.2132853 C131.223988,98.2132853 132.668932,94.6146212 134.320297,99.8126915 C134.320297,99.8126915 139.27439,118.205863 139.27439,120.405047 C139.27439,120.405047 141.957858,128.602004 137.003764,134 C137.003764,134 129.985464,134 115.948865,134 C113.196591,131.467607 112.370909,126.73603 113.471818,119.80527 C113.471818,119.80527 113.889567,117.151516 115.536024,112.20809 C115.857541,111.242748 116.54561,109.643342 117.60023,107.409871 Z" id="Path-8"></path>
                    <path d="M139.871795,121 C141.649573,119.421525 142.538462,117.053812 142.538462,113.896861 C142.538462,113.896861 142.538462,94.955157 141.205128,89.0358744 C141.205128,89.0358744 140.282051,84.6950673 139.25641,83.1165919 C139.25641,83.1165919 132.692308,85.2869955 129,84.103139 C129,84.103139 133.512821,77.7892377 139.051282,82.1300448 C139.051282,82.1300448 138.641026,77 145,77 C145,77 144.384615,82.1300448 139.461538,82.9192825" id="Path-9"></path>
                    <path d="M68.5,133.799988 L115.5,133.799988" id="Path-3"></path>
                </g>
            </g>
        </g>
    </g>
</svg>